<?xml version="1.0" encoding="utf-8"?>
<!-- Generator: Adobe Illustrator 27.5.0, SVG Export Plug-In . SVG Version: 6.00 Build 0)  -->
<svg version="1.1" xmlns="http://www.w3.org/2000/svg" xmlns:xlink="http://www.w3.org/1999/xlink" x="0px" y="0px"
	 viewBox="0 0 3710 3710" style="enable-background:new 0 0 3710 3710;" xml:space="preserve">
<g id="Background">
	<g>
		<g>
			<rect style="fill:#FFFFFF;" width="3710" height="3710"/>
		</g>
	</g>
</g>
<g id="Illustration">
	<g>
		<linearGradient id="SVGID_1_" gradientUnits="userSpaceOnUse" x1="3531.95" y1="3923.0513" x2="1139.3285" y2="951.5657">
			<stop  offset="0" style="stop-color:#DAE3FE"/>
			<stop  offset="1" style="stop-color:#E9EFFD"/>
		</linearGradient>
		<path style="fill:url(#SVGID_1_);" d="M2974.071,2601.074c-56.44,59.702-273.222,301.928-315.415,332.347
			c-495.965,357.567-999.795,287.924-1124.519,262.47c-184.178-37.587-560.013-259.754-817.403-563.892
			c-389.41-460.135-308.95-1035.552-6.897-1514.088c55.25-87.532,347.098-573.357,940.276-651.269
			c358.985-47.151,777.447,47.947,1080.485,303.051C3366.702,1305.179,3401.771,2148.645,2974.071,2601.074z"/>
		<g>
			
				<linearGradient id="SVGID_00000103231231407965665590000002975180924996730010_" gradientUnits="userSpaceOnUse" x1="968.4146" y1="1641.2987" x2="1116.4202" y2="564.8979">
				<stop  offset="0" style="stop-color:#4F52FF"/>
				<stop  offset="1" style="stop-color:#4042E2"/>
			</linearGradient>
			<path style="fill:url(#SVGID_00000103231231407965665590000002975180924996730010_);" d="M1180.222,2769.698
				c41.417-131.53,93.579-372.173-0.19-557.563c-12.265-24.249-49.346-25.125-64.548-1.672
				c-45.089,69.558-123.728,215.088-171.43,441.353c0,0,60.595-591.867-131.593-843.601c-11.041-14.462-35.524-11.318-42.932,5.405
				c-41.38,93.402-136.77,368.858-55.578,787.346c0,0-68.391-315.054-170.189-446.395c-9.161-11.82-29.58-6.479-31.411,8.177
				c-13.637,109.144-44.259,436.017,42.109,663.684c23.739,62.575,91.867,100.385,163.853,91.608l325.28-39.662
				C1108.089,2870.514,1161.992,2827.591,1180.222,2769.698z"/>
			<path style="opacity:0.2;fill:#FFFFFF;" d="M795.05,1881.221c6.261,81.735,12.061,163.452,17.284,245.146
				c5.186,81.698,9.523,163.411,12.493,245.131c1.158,40.876,2.578,81.717,3.047,122.582c0.425,40.862-0.021,81.709-0.313,122.525
				c-0.469,40.818-1.319,81.599-2.763,122.404c-1.271,40.832-3.626,81.603-7.147,122.696l4.751,0.733
				c13.224-39.921,20.944-81.052,26.932-122.151c5.672-41.158,9.044-82.477,10.676-123.745c1.611-41.272,1.341-82.499,0.618-123.664
				c-0.956-41.154-2.134-82.281-4.571-123.315c-2.463-41.026-5.083-82.024-8.656-122.93c-3.687-40.893-7.471-81.762-12.256-122.518
				c-4.674-40.765-9.769-81.471-15.646-122.069c-5.743-40.615-12.21-81.117-19.647-121.486L795.05,1881.221z"/>
			<path style="opacity:0.2;fill:#FFFFFF;" d="M544.805,2241.956c-2.422,26.463-2.85,52.795-2.509,79.072
				c0.177,13.14,0.605,26.259,1.252,39.359l1.054,19.645l1.462,19.604c4.176,52.259,11.485,104.181,20.579,155.827
				c9.26,51.617,19.923,103.043,33.986,153.743c1.617,6.36,3.459,12.676,5.408,18.971l5.749,18.889l5.843,18.844
				c2.096,6.245,4.424,12.437,6.622,18.649c4.571,12.383,8.579,24.887,13.902,37.024c5.129,12.188,10.422,24.29,15.879,36.288
				l4.594-1.509c-12.351-50.85-22.533-101.73-31.863-152.815c-9.374-51.063-17.176-102.413-25.038-153.74l-5.687-38.542
				l-5.418-38.594c-3.577-25.736-7.552-51.427-11.496-77.143c-8.26-51.39-17.118-102.745-29.491-153.974L544.805,2241.956z"/>
		</g>
		<g>
			<g>
				
					<linearGradient id="SVGID_00000150102514893603711850000014401950185754907284_" gradientUnits="userSpaceOnUse" x1="3361.0574" y1="729.8818" x2="2099.5374" y2="1788.2764">
					<stop  offset="0" style="stop-color:#E1473D"/>
					<stop  offset="1" style="stop-color:#E9605A"/>
				</linearGradient>
				<path style="fill:url(#SVGID_00000150102514893603711850000014401950185754907284_);" d="M2661.305,3210.867H1061.189
					c-68.018,0-128.828-42.34-152.449-106.125c-173.093-467.408-80.338-1351.396,47.93-2291.034l1723.474,71.639
					c178.106,853.98,304.844,1704.21,112.129,2226.565C2771.204,3169.022,2722.177,3210.867,2661.305,3210.867z"/>
				
					<linearGradient id="SVGID_00000089570843732677324340000018130921923587097527_" gradientUnits="userSpaceOnUse" x1="1781.8425" y1="246.4145" x2="1753.3318" y2="2812.3564">
					<stop  offset="0" style="stop-color:#FF928E"/>
					<stop  offset="1" style="stop-color:#FE7062"/>
				</linearGradient>
				<path style="fill:url(#SVGID_00000089570843732677324340000018130921923587097527_);" d="M2578.645,3210.867H978.528
					c-68.018,0-128.828-42.34-152.449-106.125c-173.093-467.408-80.338-1351.396,47.93-2291.034h1802.002
					c84.427,888.956,178.307,1793.774,33.601,2298.204C2692.827,3170.425,2639.516,3210.867,2578.645,3210.867z"/>
				
					<linearGradient id="SVGID_00000168815459807046786710000014016283932116091535_" gradientUnits="userSpaceOnUse" x1="1982.7177" y1="-101.1569" x2="1512.2993" y2="1637.9701">
					<stop  offset="0" style="stop-color:#FF928E"/>
					<stop  offset="1" style="stop-color:#FE7062"/>
				</linearGradient>
				<path style="fill:url(#SVGID_00000168815459807046786710000014016283932116091535_);" d="M828.546,605.948l38.575,274.391
					l1813.023,5.01l41.331-244.244c0-42.175-37.61-76.364-84.005-76.364H873.877C848.841,564.74,828.546,583.189,828.546,605.948z
					 M2118.052,707.511c0,24.9-22.205,45.086-49.596,45.086h-595.157c-27.391,0-49.596-20.186-49.596-45.086v-3.757
					c0-24.9,22.205-45.085,49.596-45.085h595.157c27.391,0,49.596,20.185,49.596,45.085V707.511z"/>
			</g>
			<g>
				<path style="opacity:0.9;fill:#FFFFFF;" d="M1244.492,1752.996c1.576,294.862,237.244,546.953,534.777,564.314
					c307.228,17.927,563.73-219.712,563.73-532.176c0-313.417-257.902-568.195-566.756-568.195
					C1477.187,1216.94,1242.912,1457.286,1244.492,1752.996z"/>
				<g>
					
						<linearGradient id="SVGID_00000134238998732511025670000012391161833182901175_" gradientUnits="userSpaceOnUse" x1="1928.3286" y1="1604.8367" x2="2726.6182" y2="-162.8085">
						<stop  offset="0" style="stop-color:#E1473D"/>
						<stop  offset="1" style="stop-color:#E9605A"/>
					</linearGradient>
					<path style="fill:url(#SVGID_00000134238998732511025670000012391161833182901175_);" d="M1881.961,1497.055
						c-130.511,24.772-194.238,197.681-178.621,321.581c4.194,33.276,13.969,61.846,24.841,85.114
						c7.885,53.431,21.809,94.92,23.065,98.589c1.981,5.797,8.175,8.851,13.835,6.825c0.279-0.099,0.55-0.21,0.815-0.329
						c5.128-2.318,7.736-8.324,5.853-13.839c-0.635-1.862-62.777-187.188,3.431-276.909c66.574-90.21,221.2-89.114,222.755-89.093
						c0,0-260.847,10.835-225.505,227.054c5.928-11.249,13.366-22.042,22.839-31.786c54.128-55.682,125.746-29.339,205.149-77.379
						c34.423-20.826,77.753-60.134,110.86-141.604C2051.264,1527.623,1963.488,1481.58,1881.961,1497.055z"/>
					
						<linearGradient id="SVGID_00000009568283220411918280000014182631378053436857_" gradientUnits="userSpaceOnUse" x1="1975.6708" y1="1626.2179" x2="2773.959" y2="-141.4243">
						<stop  offset="0" style="stop-color:#E1473D"/>
						<stop  offset="1" style="stop-color:#E9605A"/>
					</linearGradient>
					<path style="fill:url(#SVGID_00000009568283220411918280000014182631378053436857_);" d="M1485.634,2068.63
						c0,0,239.095-270.146,579.411,2.362C1693.169,2067.361,1485.634,2068.63,1485.634,2068.63z"/>
					
						<linearGradient id="SVGID_00000062871311128199214310000013310876113735297166_" gradientUnits="userSpaceOnUse" x1="1626.8962" y1="1468.7061" x2="2425.1848" y2="-298.9369">
						<stop  offset="0" style="stop-color:#E1473D"/>
						<stop  offset="1" style="stop-color:#E9605A"/>
					</linearGradient>
					<path style="fill:url(#SVGID_00000062871311128199214310000013310876113735297166_);" d="M1453.306,1464.58
						c23.42,64.093,37.878,263.974,217.145,295.233c1.989-38.394,9.804-77.353,22.927-113.877
						c-22.864-34.01-60.917-63.119-100.762-89.34c55.612-4.187,95.162,20.983,119.896,45.222
						c18.252-35.535,42.061-67.077,70.887-91.15C1704.629,1449.307,1578.87,1385.749,1453.306,1464.58z"/>
				</g>
			</g>
		</g>
		<g>
			
				<linearGradient id="SVGID_00000021818339820284418980000001633656321826772154_" gradientUnits="userSpaceOnUse" x1="898.048" y1="1175.719" x2="891.3206" y2="1572.6418">
				<stop  offset="0" style="stop-color:#4F52FF"/>
				<stop  offset="1" style="stop-color:#4042E2"/>
			</linearGradient>
			<path style="fill:url(#SVGID_00000021818339820284418980000001633656321826772154_);" d="M880.814,3185.659
				c-96.023-9.883-180.661-67.277-225.333-152.849c-89.142-170.758-220.869-469.984-203.956-720.663
				c25.292-374.882,83.109-115.347,116.634,69.028c33.525,184.375,90.107,311.864,137.951,351.091
				c47.844,39.227-97.61-250.1-113.766-536.988c-16.156-286.887,12.147-460.655,74.874-289.982
				c62.727,170.673,80.082,464.983,150.73,636.078c70.648,171.096,31.202-25.365,35.815-126.565
				c4.614-101.2,17.83-293.94,109.568-282.597c91.738,11.344,32.031,265.982,104.499,484.113
				c72.468,218.131,223.518,611.585,223.518,611.585L880.814,3185.659z"/>
			<path style="fill:#7D97F4;" d="M499.068,2223.769c5.001,38.9,10.693,77.771,17.472,116.423c1.547,9.686,3.43,19.319,5.157,28.975
				l5.222,28.957l11.367,57.73c15.769,76.846,34.414,153.042,55.502,228.511c20.78,75.584,45.937,149.832,73.065,223.293
				l21.126,54.831c1.683,4.605,3.61,9.104,5.597,13.578l5.807,13.49l11.565,27.017l11.48,27.08
				c3.951,8.969,8.372,17.714,12.538,26.588c8.481,17.677,16.928,35.39,25.167,53.247l0.046,0.099
				c0.472,1.023,0.025,2.234-0.997,2.706c-0.967,0.447-2.108,0.064-2.627-0.844c-9.72-17.104-19.232-34.351-28.71-51.635
				c-4.692-8.664-9.644-17.21-14.128-25.984l-12.841-26.625l-12.756-26.688l-6.354-13.362c-2.136-4.448-4.212-8.921-6.041-13.497
				l-22.789-54.595c-7.835-18.121-14.16-36.804-21.071-55.275l-10.084-27.812c-1.644-4.648-3.406-9.257-4.952-13.937l-4.533-14.076
				l-18.043-56.333c-5.65-18.887-10.809-37.915-16.236-56.865c-20.967-75.999-38.517-152.917-52.582-230.433
				c-3.361-19.408-6.697-38.819-9.825-58.259c-2.832-19.491-6.055-38.914-8.421-58.468l-3.705-29.297l-3.297-29.346
				c-2.194-19.566-3.873-39.171-5.185-58.85c-0.075-1.125,0.776-2.097,1.9-2.172c1.08-0.072,2.02,0.71,2.159,1.769L499.068,2223.769
				z"/>
			<path style="fill:#7D97F4;" d="M643.506,1996.569c19.405,96.966,38.859,193.848,59.205,290.495
				c20.122,96.689,41.232,193.126,63.536,289.225c11.11,48.058,22.969,95.925,34.921,143.743l9.13,35.816
				c3.019,11.947,6.153,23.86,9.389,35.742l9.396,35.735l9.668,35.656c6.828,23.647,13.166,47.458,20.222,71.036
				c3.417,11.829,6.917,23.632,10.631,35.357c3.637,11.751,6.94,23.64,10.856,35.294c14.906,46.928,30.906,93.498,49.523,139.272
				c0.429,1.045-0.07,2.24-1.114,2.668c-0.96,0.395-2.05-0.002-2.553-0.878c-24.633-43.156-44.855-88.75-63.018-134.954
				c-9.08-23.114-17.887-46.361-25.81-69.878c-8.28-23.415-15.925-47.019-23.319-70.708
				c-29.598-94.743-53.302-191.082-75.048-287.711c-21.581-96.684-40.481-193.902-57.261-291.451
				c-16.484-97.603-31.407-195.452-42.388-293.852c-0.125-1.121,0.682-2.13,1.803-2.255
				C642.333,1994.804,643.298,1995.544,643.506,1996.569z"/>
			<path style="fill:#7D97F4;" d="M936.873,2282.897c4.155,39.096,2.939,78.264,2.603,116.615
				c-0.464,19.224-0.201,38.249-0.181,57.257c0.388,9.486,0.509,18.962,0.77,28.434c0.04,4.739,0.33,9.465,0.663,14.189
				l0.908,14.176c0.58,18.935,3.286,37.752,5.187,56.621c0.272,2.356,0.475,4.719,0.804,7.07l1.16,7.037l2.318,14.075l4.642,28.155
				l12.159,55.938l14.444,55.575c21.299,73.666,46.336,146.52,73.729,218.668c6.404,18.206,14.077,35.931,21.1,53.919l21.202,53.958
				c14.859,35.687,29.741,71.401,44.101,107.414l0.018,0.047c0.417,1.047-0.093,2.235-1.141,2.652
				c-0.974,0.389-2.074-0.035-2.559-0.938c-18.196-34.217-36.087-68.635-53.607-103.258c-16.538-35.082-33.79-69.89-49.234-105.538
				c-7.656-17.852-15.505-35.642-23.013-53.575l-5.677-13.433c-1.844-4.499-3.516-9.071-5.282-13.603l-10.467-27.26
				c-14.588-36.111-26.43-73.335-38.46-110.485c-23.269-74.551-39.834-152.014-44.799-231.014l-0.767-14.805
				c-0.247-4.934-0.609-9.866-0.426-14.809c0.144-9.88,0.145-19.756,0.415-29.622c0.31-9.858,1.191-19.661,1.935-29.471
				c0.602-9.836,1.894-19.537,3.099-29.246c4.95-38.876,12.366-76.686,20.278-114.929c0.223-1.118,1.31-1.843,2.427-1.62
				C936.126,2281.272,936.774,2282.031,936.873,2282.897z"/>
		</g>
		<g>
			
				<linearGradient id="SVGID_00000011736650465587048600000011655959919274391229_" gradientUnits="userSpaceOnUse" x1="1914.9049" y1="2316.6108" x2="2836.575" y2="1475.6711">
				<stop  offset="0" style="stop-color:#4F52FF"/>
				<stop  offset="1" style="stop-color:#4042E2"/>
			</linearGradient>
			<path style="fill:url(#SVGID_00000011736650465587048600000011655959919274391229_);" d="M1103.418,3130.327
				c-44.75-130.576-104.554-371.038-25.429-565.165c10.35-25.392,44.966-28.737,60.251-5.972
				c45.336,67.517,125.518,209.817,180.493,436.001c0,0-83.816-595.909,84.246-863.804c9.655-15.39,32.681-13.826,40.374,2.633
				c42.964,91.931,144.769,364.816,88.105,794.381c0,0,49.45-323.874,138.561-463.749c8.02-12.588,27.348-8.527,29.733,6.207
				c17.758,109.726,61.391,439.019-8.875,675.509c-19.313,65-81.251,107.839-148.933,103.713l-305.836-18.647
				C1175.465,3227.736,1123.115,3187.8,1103.418,3130.327z"/>
			<path style="fill:#7D97F4;" d="M1422.604,2204.233c-2.098,83.262-3.766,166.476-4.896,249.628
				c-1.095,83.154-1.396,166.267-0.418,249.296c0.795,41.51,1.344,83,2.782,124.452c1.479,41.447,3.772,82.82,5.92,124.172
				c2.313,41.343,4.98,82.622,8.204,123.886c3.064,41.304,7.137,82.473,12.315,123.893l-4.407,1.057
				c-14.193-39.588-23.297-80.767-30.781-122.03c-7.192-41.343-12.241-83-15.661-124.722c-3.401-41.727-5.042-83.533-6.257-125.307
				c-0.996-41.777-1.785-83.543-1.391-125.296c0.418-41.747,0.983-83.477,2.444-125.177c1.568-41.694,3.228-83.371,5.828-124.998
				c2.497-41.63,5.389-83.228,9.017-124.767c3.502-41.548,7.687-83.031,12.783-124.441L1422.604,2204.233z"/>
			<path style="fill:#7D97F4;" d="M1673.057,2553.296c3.479,26.662,5.088,53.324,5.977,79.982
				c0.438,13.33,0.641,26.656,0.638,39.978l-0.083,19.982l-0.466,19.968c-1.503,53.247-5.949,106.36-12.077,159.311
				c-6.285,52.934-13.888,105.767-24.703,158.088c-1.219,6.554-2.651,13.078-4.183,19.588l-4.505,19.527l-4.596,19.488
				c-1.672,6.469-3.563,12.899-5.332,19.342c-3.703,12.855-6.875,25.795-11.292,38.449c-4.234,12.693-8.625,25.312-13.174,37.834
				l-4.363-1.225c9.208-52.361,16.388-104.608,22.761-157.007c6.416-52.379,11.35-104.945,16.34-157.491l3.545-39.443l3.291-39.479
				c2.161-26.323,4.696-52.628,7.202-78.954c5.36-52.637,11.281-105.278,20.491-158.024L1673.057,2553.296z"/>
		</g>
		<g>
			<g>
				
					<linearGradient id="SVGID_00000010280632559041037910000001152337089475319218_" gradientUnits="userSpaceOnUse" x1="3021.5054" y1="1516.6376" x2="3368.8101" y2="863.4965">
					<stop  offset="0" style="stop-color:#E1473D"/>
					<stop  offset="1" style="stop-color:#E9605A"/>
				</linearGradient>
				<path style="fill:url(#SVGID_00000010280632559041037910000001152337089475319218_);" d="M2842.117,1656.996l260.034-4.742
					l-1.477-80.997c-0.063-3.472-2.929-6.236-6.402-6.173l-253.747,4.628L2842.117,1656.996z"/>
				
					<linearGradient id="SVGID_00000164473481656418275720000014730589732035307966_" gradientUnits="userSpaceOnUse" x1="3567.72" y1="1041.7296" x2="3449.1765" y2="1230.3217">
					<stop  offset="0" style="stop-color:#E1473D"/>
					<stop  offset="1" style="stop-color:#E9605A"/>
				</linearGradient>
				<path style="fill:url(#SVGID_00000164473481656418275720000014730589732035307966_);" d="M2823.715,2270.634l354.086-6.457
					c13.425-0.245,24.208-11.429,23.963-24.854l-10.503-575.935c-0.394-21.586-18.377-38.926-39.964-38.532l-339.247,6.187
					c-6.448,0.118-11.627,5.489-11.51,11.937l11.237,616.145C2811.896,2265.572,2817.268,2270.751,2823.715,2270.634z"/>
			</g>
			
				<linearGradient id="SVGID_00000054265502369333920070000001612505306286229688_" gradientUnits="userSpaceOnUse" x1="-395.3063" y1="2168.9617" x2="-659.2415" y2="2406.1016" gradientTransform="matrix(-1 0 0 1 2176.9375 0)">
				<stop  offset="0" style="stop-color:#53D8FF"/>
				<stop  offset="1" style="stop-color:#3840F7"/>
			</linearGradient>
			<path style="fill:url(#SVGID_00000054265502369333920070000001612505306286229688_);" d="M2836.048,2475.204
				c1.624,0,3.11-1.09,3.534-2.738c8.041-31.01,68.247-65.088,68.853-65.429c1.76-0.987,2.389-3.215,1.399-4.977
				c-0.989-1.76-3.206-2.39-4.977-1.4c-2.588,1.452-63.533,35.951-72.352,69.971c-0.507,1.954,0.667,3.95,2.62,4.455
				C2835.434,2475.167,2835.744,2475.204,2836.048,2475.204z"/>
			<g>
				
					<linearGradient id="SVGID_00000036217963319122204620000015244425887262708100_" gradientUnits="userSpaceOnUse" x1="2445.282" y1="1906.6405" x2="2087.0605" y2="1810.7787">
					<stop  offset="0" style="stop-color:#FEBBBA"/>
					<stop  offset="1" style="stop-color:#FF928E"/>
				</linearGradient>
				<path style="fill:url(#SVGID_00000036217963319122204620000015244425887262708100_);" d="M1969.208,1835.802
					c2.965-9.857,10.252-17.83,19.802-21.67l93.207-37.482c0,0,1.407-11.954-19.693-20.078
					c-21.102-8.122-16.168-31.755-16.168-31.755s28.827,13.15,71.031,34.006c24.134,11.927,37.677,32.988,44.859,48.84
					l-23.995,31.554c-57.446,17.258-115.575,20.557-174.199,13.712L1969.208,1835.802z"/>
				<path style="fill:#7D97F4;" d="M2597.514,1785.204c15.108-18.221,28.412-37.807,39.614-58.036
					c15.644-28.253,0.866,18.498,5.601-13.651c114.657-79.491,284.207-34.959,349.936-25.415
					c21.552,3.13,41.109,14.153,55.034,30.898c55.224,66.401,176.358,245.498,27.134,422.99
					c-18.464-10.71-45.291-25.702-62.937-45.264c16.991-45.173,19.409-103.264-13.054-175.168
					c-1.262,5.627-2.796,11.192-4.635,16.663c-49.387,146.75-54.193,269.555-54.624,297.871c-0.058,3.845-2.432,7.262-6.029,8.627
					c-61.794,23.417-179.575,6.561-219.094-0.093c-7.246-1.221-12.007-8.079-10.865-15.336
					c22.111-140.544-73.332-374.233-98.6-432.791C2603.177,1792.286,2600.625,1788.477,2597.514,1785.204z"/>
				
					<linearGradient id="SVGID_00000063616925196966758220000005341680414154280099_" gradientUnits="userSpaceOnUse" x1="-65.5283" y1="2042.3267" x2="53.6669" y2="2886.6274" gradientTransform="matrix(-1 0 0 1 2944.7061 0)">
					<stop  offset="0" style="stop-color:#4F52FF"/>
					<stop  offset="1" style="stop-color:#4042E2"/>
				</linearGradient>
				<path style="fill:url(#SVGID_00000063616925196966758220000005341680414154280099_);" d="M2915.213,3237.652
					c-1.385,5.039,0.239,7.745-4.522,8.746c-36.481,7.672-108.49,0.628-132.834-2.554c-5.371-0.702-9.297-5.669-9.386-11.277
					C2828.1,3239.354,2889.567,3239.943,2915.213,3237.652z"/>
				
					<linearGradient id="SVGID_00000158722174186140026860000012623749788933252541_" gradientUnits="userSpaceOnUse" x1="74.9189" y1="3022.814" x2="48.11" y2="3256.7839" gradientTransform="matrix(-1 0 0 1 2944.7061 0)">
					<stop  offset="0" style="stop-color:#FEBBBA"/>
					<stop  offset="1" style="stop-color:#FF928E"/>
				</linearGradient>
				<path style="fill:url(#SVGID_00000158722174186140026860000012623749788933252541_);" d="M2906.646,3083.824l-13.167,63.387
					c-0.965,4.644-4.534,8.123-8.857,8.529c-5.291,0.497-12.824,0.788-20.399-0.325c-6.793-0.998-11.523-7.901-10.319-15.309
					l9.152-56.282H2906.646z"/>
				
					<linearGradient id="SVGID_00000014625905349007623100000017447866306904110221_" gradientUnits="userSpaceOnUse" x1="177.8744" y1="2007.9662" x2="297.0692" y2="2852.2639" gradientTransform="matrix(-1 0 0 1 2944.7061 0)">
					<stop  offset="0" style="stop-color:#4F52FF"/>
					<stop  offset="1" style="stop-color:#4042E2"/>
				</linearGradient>
				<path style="fill:url(#SVGID_00000014625905349007623100000017447866306904110221_);" d="M2633.827,3234.93
					c34.336-0.962,52.095-5.005,61.276-8.758c0.022,3.413,0.002,6.888-0.108,10.489c-0.118,3.845-2.966,6.916-6.47,6.893
					L2500,3242.337c-6.017-0.04-9.533-7.017-6.925-12.533C2517.794,3231.845,2580.75,3236.415,2633.827,3234.93z"/>
				
					<linearGradient id="SVGID_00000049937071551812187520000016270037286587333297_" gradientUnits="userSpaceOnUse" x1="293.2974" y1="3047.8364" x2="266.4886" y2="3281.8054" gradientTransform="matrix(-1 0 0 1 2944.7061 0)">
					<stop  offset="0" style="stop-color:#FEBBBA"/>
					<stop  offset="1" style="stop-color:#FF928E"/>
				</linearGradient>
				<path style="fill:url(#SVGID_00000049937071551812187520000016270037286587333297_);" d="M2684.321,3076.512
					c-0.446,2.996-5.957,48.536-8.089,66.193c-0.506,4.196-3.546,7.443-7.377,7.9c-6.845,0.818-17.922,1.562-27.612-0.424
					c-5.228-1.072-9.012-6.094-9.012-11.933v-71.485L2684.321,3076.512z"/>
				
					<linearGradient id="SVGID_00000149376366515576157670000011407208143798452366_" gradientUnits="userSpaceOnUse" x1="-629.1011" y1="797.0853" x2="-623.0712" y2="2207.7961" gradientTransform="matrix(-1 0 0 1 2176.9375 0)">
					<stop  offset="0" style="stop-color:#4F52FF"/>
					<stop  offset="1" style="stop-color:#4042E2"/>
				</linearGradient>
				<path style="fill:url(#SVGID_00000149376366515576157670000011407208143798452366_);" d="M2695.932,2128.881
					c0,0-73.873,486.038-72.12,949.71c0.032,8.454,3.524,14.724,11.797,16.467c12.19,2.568,30.11,5.616,44.944,5.2
					c7.919-0.222,14.539-6.095,15.871-13.905c13.594-79.723,91.61-528.843,136.06-601.757c0,0,29.245,400.007,19.897,607.532
					c-0.232,5.161,3.547,9.636,8.678,10.229c7.783,0.9,20.235,1.583,36.083-0.1c6.015-0.639,10.868-5.186,11.728-11.174
					c9.683-67.472,65.417-469.09,63.049-758.4c-0.134-16.315-9.416-203.804-9.416-203.804H2695.932z"/>
				
					<linearGradient id="SVGID_00000079457164181361621060000002689143520683809976_" gradientUnits="userSpaceOnUse" x1="-484.1047" y1="3299.0251" x2="-409.6075" y2="2956.3389" gradientTransform="matrix(-1 0 0 1 2176.9375 0)">
					<stop  offset="0" style="stop-color:#09005D"/>
					<stop  offset="1" style="stop-color:#1A0F91"/>
				</linearGradient>
				<path style="fill:url(#SVGID_00000079457164181361621060000002689143520683809976_);" d="M2493.821,3228.382
					c15.634-21.846,53.984-64.021,127.981-85.72v-242.366c0-2.213,2.215-3.717,4.284-2.933
					c35.842,13.579,71.643,20.177,100.784,13.867c1.892-0.41,3.588,1.24,3.266,3.149l-42.36,251.834l-0.236-0.083
					c3.903,14.678,7.415,34.82,7.562,60.042c-9.181,3.753-26.94,7.796-61.276,8.758c-53.077,1.485-116.033-3.084-140.752-5.126
					C2493.302,3229.323,2493.498,3228.834,2493.821,3228.382z"/>
				
					<linearGradient id="SVGID_00000023262963816549905350000001771440824842535310_" gradientUnits="userSpaceOnUse" x1="-710.6618" y1="3249.7737" x2="-636.1649" y2="2907.0886" gradientTransform="matrix(-1 0 0 1 2176.9375 0)">
					<stop  offset="0" style="stop-color:#09005D"/>
					<stop  offset="1" style="stop-color:#1A0F91"/>
				</linearGradient>
				<path style="fill:url(#SVGID_00000023262963816549905350000001771440824842535310_);" d="M2768.792,3229.396
					c10.595-42.006,70.012-87.015,70.012-87.015l2.917-205.057c0.057-3.986,4.08-6.624,7.792-5.171
					c25.224,9.869,53.985,13.26,79.618,10.566c5.129-0.539,9.351,3.99,8.549,9.085l-31.034,190.344l-2.101,18.267
					c7.089,34.164,12.85,65.768,10.667,77.238c-0.079,0.423-9.328-0.364-9.44,0.045c-25.646,2.291-77.673,1.757-137.303-5.029
					C2768.454,3231.622,2768.524,3230.463,2768.792,3229.396z"/>
				<path style="fill:#91B3FA;" d="M3018.801,1924.979c26.355-72.125,16.794-159.217,16.694-160.088l-7.262,0.83
					c0.096,0.855,9.453,86.277-16.301,156.749L3018.801,1924.979z"/>
				<g>
					<path style="fill:#7D97F4;" d="M2299.156,1853.708c138.492,20.78,228.757-66.604,296.019-119.612
						c88.805-69.985,157.911-35.937,157.911-35.937l-94.705,180.746c-141.429,133.347-286.437,103.735-377.855,60.522
						C2279.119,1904.516,2288.448,1875.299,2299.156,1853.708z"/>
					
						<linearGradient id="SVGID_00000041989440726294640360000006755089498455814039_" gradientUnits="userSpaceOnUse" x1="2441.2222" y1="1921.8099" x2="2083.0007" y2="1825.948">
						<stop  offset="0" style="stop-color:#FEBBBA"/>
						<stop  offset="1" style="stop-color:#FF928E"/>
					</linearGradient>
					<path style="fill:url(#SVGID_00000041989440726294640360000006755089498455814039_);" d="M2104.507,1771.083l45.927,24.714
						c55.079,33.536,104.367,51.256,148.722,57.91c-10.708,21.592-20.037,50.808-18.631,85.719
						c-58.194-27.506-94.679-60.522-94.679-60.522C2081.806,1816.866,2104.507,1771.083,2104.507,1771.083z"/>
				</g>
				<g>
					
						<linearGradient id="SVGID_00000124121858982665794740000003107144088244616610_" gradientUnits="userSpaceOnUse" x1="-652.5948" y1="797.1829" x2="-646.5649" y2="2207.8967" gradientTransform="matrix(-1 0 0 1 2176.9375 0)">
						<stop  offset="0" style="stop-color:#4F52FF"/>
						<stop  offset="1" style="stop-color:#4042E2"/>
					</linearGradient>
					<path style="fill:url(#SVGID_00000124121858982665794740000003107144088244616610_);" d="M2722.996,2136.489
						c51.394,23.548,123.817,16.233,190.542-2.439l27.96-258.355c1.334-12.403-14.064-34.67-26.539-34.67
						c-67.138-6.307-130.56-7.376-187.989,0c-10.308,0-18.43,8.783-17.625,19.06
						C2705.502,1955.215,2710.511,2059.356,2722.996,2136.489z"/>
					
						<linearGradient id="SVGID_00000014630853165852198420000012044404350292149138_" gradientUnits="userSpaceOnUse" x1="-756.9265" y1="797.6282" x2="-750.8966" y2="2208.3408" gradientTransform="matrix(-1 0 0 1 2176.9375 0)">
						<stop  offset="0" style="stop-color:#4F52FF"/>
						<stop  offset="1" style="stop-color:#4042E2"/>
					</linearGradient>
					<path style="fill:url(#SVGID_00000014630853165852198420000012044404350292149138_);" d="M2901.048,1856.602l32.623,12.252
						l24.663-185.153c0.244-1.83-0.87-3.51-2.519-3.799l-25.05-4.401c-1.54-0.271-3.011,0.907-3.263,2.612L2901.048,1856.602z"/>
					
						<linearGradient id="SVGID_00000095299483050347261390000003809760647626693787_" gradientUnits="userSpaceOnUse" x1="-569.2853" y1="796.8268" x2="-563.2554" y2="2207.5398" gradientTransform="matrix(-1 0 0 1 2176.9375 0)">
						<stop  offset="0" style="stop-color:#4F52FF"/>
						<stop  offset="1" style="stop-color:#4042E2"/>
					</linearGradient>
					<path style="fill:url(#SVGID_00000095299483050347261390000003809760647626693787_);" d="M2722.996,1844.18l34.358,1.652
						l3.871-172.39c0.047-2.08-1.722-3.726-3.764-3.501l-26.227,2.891L2722.996,1844.18z"/>
				</g>
				
					<linearGradient id="SVGID_00000047778092422577485270000016267983445946199741_" gradientUnits="userSpaceOnUse" x1="2829.4358" y1="2180.7627" x2="2802.5259" y2="1575.2897">
					<stop  offset="0" style="stop-color:#4F52FF"/>
					<stop  offset="1" style="stop-color:#4042E2"/>
				</linearGradient>
				<path style="fill:url(#SVGID_00000047778092422577485270000016267983445946199741_);" d="M2955.165,2120.691
					c-88.574,13.581-173.833,15.414-251.605,5.323c-4.656-0.604-8.91,2.692-9.428,7.358l-4.013,36.179
					c87.517,6.905,179.036,3.834,273.546-6.697l2.294-32.267C2966.386,2124.583,2961.115,2119.779,2955.165,2120.691z"/>
			</g>
			
				<linearGradient id="SVGID_00000055681115327277494380000002614669905104254116_" gradientUnits="userSpaceOnUse" x1="134.1452" y1="1527.1084" x2="31.7837" y2="1969.4563" gradientTransform="matrix(-1 0 0 1 2944.7061 0)">
				<stop  offset="0" style="stop-color:#FEBBBA"/>
				<stop  offset="1" style="stop-color:#FF928E"/>
			</linearGradient>
			<path style="fill:url(#SVGID_00000055681115327277494380000002614669905104254116_);" d="M2887.908,1561.554l12.602,128.754
				c0,0-72.432,21.816-125.114-15.354l37.034-117.018L2887.908,1561.554z"/>
			<g>
				
					<linearGradient id="SVGID_00000085237573550500627450000016035397752663494573_" gradientUnits="userSpaceOnUse" x1="-327.0425" y1="406.6082" x2="-508.6407" y2="646.848" gradientTransform="matrix(-0.8991 -0.4377 -0.4377 0.8991 2664.0195 946.4262)">
					<stop  offset="0" style="stop-color:#FEBBBA"/>
					<stop  offset="1" style="stop-color:#FF928E"/>
				</linearGradient>
				<path style="fill:url(#SVGID_00000085237573550500627450000016035397752663494573_);" d="M2748.512,1438.61
					c-1.048,2.153-18.186,159.513-18.186,159.513l90.058,7.876l38.403-146.732
					C2858.787,1459.267,2766.058,1402.574,2748.512,1438.61z"/>
				
					<linearGradient id="SVGID_00000090259561108093478070000006563384419510422186_" gradientUnits="userSpaceOnUse" x1="-465.7337" y1="464.3023" x2="-252.8968" y2="464.3023" gradientTransform="matrix(-0.8991 -0.4377 -0.4377 0.8991 2664.0195 946.4262)">
					<stop  offset="0" style="stop-color:#09005D"/>
					<stop  offset="1" style="stop-color:#1A0F91"/>
				</linearGradient>
				<path style="fill:url(#SVGID_00000090259561108093478070000006563384419510422186_);" d="M2826.32,1475.241
					c2.691,2.998,3.844,7.045,3.131,11.01l-13.961,77.686c-0.212,1.179-0.569,2.307-1.099,3.381
					c-2.924,5.92-13.747,24.021-32.019,11.896c-15.574-10.333-30.029-19.616-42.292-21.054c-7.161-0.841-13.581,4.434-14.334,11.604
					c-1.552,14.77-4.084,44.637-2.607,71.488c0.371,6.729,5.917,12.003,12.655,12.153c17.782,0.399,52.529,0.138,80.977-6.384
					c4.673-1.071,8.359-4.612,9.628-9.235c5.588-20.344,21.48-77.303,28.441-92.692c6.467-14.296,27.131-17.668,36.717-18.462
					c3.639-0.302,6.961-2.081,9.217-4.952c6.767-8.609,17.082-27.568-5.366-44.529c-5.581-4.217-6.604-12.266-2.502-17.933
					c7.348-10.155,13.388-26.275-4.161-42.014c-17.765-15.934-36.74-10.772-48.626-4.522c-5.259,2.766-11.955,1.997-16.019-2.337
					c-1.808-1.928-4.407-3.17-8.137-2.559c-7.035,1.152-13.588-3.195-14.787-10.222c-2.056-12.05,5.112-17.839-16.53-20.893
					c-39.693-5.601-36.362,57.137-69.547,54.194c-27.585-2.446,45.485,31.239,69.696,25.407
					C2802.579,1451.991,2818.906,1466.982,2826.32,1475.241z"/>
				
					<linearGradient id="SVGID_00000039114876728088508960000015284257080231885453_" gradientUnits="userSpaceOnUse" x1="2996.6521" y1="1518.172" x2="2696.8015" y2="1590.8066">
					<stop  offset="0" style="stop-color:#FEBBBA"/>
					<stop  offset="1" style="stop-color:#FF928E"/>
				</linearGradient>
				<path style="fill:url(#SVGID_00000039114876728088508960000015284257080231885453_);" d="M2844.956,1573.564
					c0,0,2.837-48.089,22.126-53.611c19.29-5.522,41.067,7.521,25.839,37.244C2873.979,1594.17,2844.956,1573.564,2844.956,1573.564
					z"/>
			</g>
			<g>
				
					<ellipse transform="matrix(0.9986 -0.0529 0.0529 0.9986 -72.8455 150.5141)" style="fill:#91B3FA;" cx="2807.261" cy="1451.538" rx="183.661" ry="40.613"/>
				<path style="fill:#7D97F4;" d="M2892.989,1455.081c7.408-1.77,11.755-9.589,9.579-17.249l-23.066-81.189
					c-1.847-4.871-6.25-8.206-11.099-8.405l-104.155-4.285c-5.462-0.225-10.354,3.005-12.469,8.233l-29.819,96.683
					C2784.818,1465.7,2832.487,1469.539,2892.989,1455.081z"/>
			</g>
			
				<linearGradient id="SVGID_00000165933800002904916910000002337629377779288235_" gradientUnits="userSpaceOnUse" x1="3470.3469" y1="1494.9293" x2="3380.9551" y2="1701.6482">
				<stop  offset="0" style="stop-color:#FF928E"/>
				<stop  offset="1" style="stop-color:#FE7062"/>
			</linearGradient>
			<path style="fill:url(#SVGID_00000165933800002904916910000002337629377779288235_);" d="M3258.314,2525.87
				c-10.522-88.741-65.875-165.957-86.642-252.872c-1.468-6.138,0.506-36.884,4.715-41.584
				c-12.606,11.765-31.746,25.483-44.882,29.358c-2.163,0.638,15.887,67.86,17.634,73.604c6.471,21.267,17.265,38.781,26.995,58.744
				c20.887,42.856,35.106,88.962,41.878,136.156c5.279,36.795,5.84,75.523-8.496,109.82
				c-36.671,87.735-125.482,70.759-190.171,22.868c-43.022-31.848-79.623-73.574-100.204-122.988
				c-29.031-69.705-24.062-148.142-7.891-220.332c6.812-30.406,11.351-63.662,9.391-95.108c-12.275,2.26-25.002,2.492-37.973,1.729
				c1.093,13.427,0.624,27.051-0.76,39.775c-4.055,37.305-15.739,73.39-21.086,110.532c-9.54,66.248,1.751,135.265,31.42,195.26
				c39.901,80.681,125.229,165.881,219.669,173.178c1.728,0.134,3.443,0.233,5.15,0.299
				C3227.911,2748.533,3269.027,2616.221,3258.314,2525.87z"/>
			
				<linearGradient id="SVGID_00000118386444366221832140000009905781856212749243_" gradientUnits="userSpaceOnUse" x1="3002.5569" y1="1533.0491" x2="3033.9514" y2="1118.186">
				<stop  offset="0" style="stop-color:#FF928E"/>
				<stop  offset="1" style="stop-color:#FE7062"/>
			</linearGradient>
			<path style="fill:url(#SVGID_00000118386444366221832140000009905781856212749243_);" d="M2967.672,2092.975l-5.513-1.891
				c-9.366-157.923-12.771-330.609-2.701-421.193c0.599-5.389,4.994-9.673,10.413-9.867c16.951-0.607,33.622,3.672,50.077,11.685
				c3.506,1.708,5.368,5.568,4.443,9.357c-23.305,95.517-17.78,247.562-31.5,396.944
				C2992.128,2086.314,2975.56,2095.68,2967.672,2092.975z"/>
			<g>
				
					<linearGradient id="SVGID_00000170261696263493122450000004950346646667095981_" gradientUnits="userSpaceOnUse" x1="7286.1177" y1="-5987.335" x2="7286.1177" y2="-5972.0767" gradientTransform="matrix(-0.2155 0.9765 -0.9765 -0.2155 -1272.6982 -6578.4756)">
					<stop  offset="0" style="stop-color:#09005D"/>
					<stop  offset="1" style="stop-color:#1A0F91"/>
				</linearGradient>
				<path style="fill:url(#SVGID_00000170261696263493122450000004950346646667095981_);" d="M2938.566,2086.835
					c-4.107-0.906-6.703-4.971-5.796-9.078l112.238-508.706c0.906-4.107,4.971-6.703,9.078-5.796l0,0
					c4.108,0.906,6.703,4.971,5.796,9.078l-112.238,508.706C2946.738,2085.146,2942.674,2087.741,2938.566,2086.835
					L2938.566,2086.835z"/>
				
					<linearGradient id="SVGID_00000074420715311186801950000010758597388399959728_" gradientUnits="userSpaceOnUse" x1="7654.7378" y1="-6023.3853" x2="7654.7378" y2="-5956.8706" gradientTransform="matrix(-0.2155 0.9765 -0.9765 -0.2155 -1272.6982 -6578.4756)">
					<stop  offset="0" style="stop-color:#09005D"/>
					<stop  offset="1" style="stop-color:#1A0F91"/>
				</linearGradient>
				<path style="fill:url(#SVGID_00000074420715311186801950000010758597388399959728_);" d="M2917.23,2289.588l32.601-147.76
					l1.761,12.931c0.491,3.606,3.813,6.132,7.418,5.64l3.73-0.507c3.606-0.492,6.132-3.813,5.64-7.419l-7.976-58.57l0.802-3.633
					c2.719-12.322-5.067-24.516-17.389-27.234c-12.322-2.719-24.516,5.067-27.234,17.389l-43.976,199.318
					c-2.719,12.322,5.067,24.516,17.389,27.234S2914.511,2301.91,2917.23,2289.588z"/>
				<g>
					
						<linearGradient id="SVGID_00000052810993934107817050000004263317060878429826_" gradientUnits="userSpaceOnUse" x1="6884.3784" y1="-5990.3511" x2="6884.3784" y2="-5940.3926" gradientTransform="matrix(-0.2155 0.9765 -0.9765 -0.2155 -1272.6982 -6578.4756)">
						<stop  offset="0" style="stop-color:#09005D"/>
						<stop  offset="1" style="stop-color:#1A0F91"/>
					</linearGradient>
					<path style="fill:url(#SVGID_00000052810993934107817050000004263317060878429826_);" d="M3053.737,1382.472l14.134-5.677
						l21.568,53.71c2.051,5.108,2.508,10.645,1.322,16.018l-8.54,38.707l-14.875-3.282l8.54-38.707
						c0.522-2.368,0.321-4.81-0.581-7.061L3053.737,1382.472z"/>
				</g>
				
					<linearGradient id="SVGID_00000169532143357482304800000014003261077156495514_" gradientUnits="userSpaceOnUse" x1="6820.8691" y1="-5958.0835" x2="6820.8691" y2="-5908.0522" gradientTransform="matrix(-0.2155 0.9765 -0.9765 -0.2155 -1272.6982 -6578.4756)">
					<stop  offset="0" style="stop-color:#09005D"/>
					<stop  offset="1" style="stop-color:#1A0F91"/>
				</linearGradient>
				<path style="fill:url(#SVGID_00000169532143357482304800000014003261077156495514_);" d="M3054.671,1386.88l16.699-7.585
					c1.276-0.579,1.952-1.991,1.604-3.349l-8.536-33.266c-0.691-2.689-2.587-4.907-5.137-6.006s-5.464-0.954-7.893,0.39
					l-20.122,11.146c-2.41,1.335-4.074,3.705-4.51,6.426c-0.436,2.72,0.405,5.491,2.277,7.512l22.303,24.065
					C3052.203,1387.125,3053.539,1387.394,3054.671,1386.88z"/>
				
					<linearGradient id="SVGID_00000006692003706783062480000005886432280815254431_" gradientUnits="userSpaceOnUse" x1="6973.8564" y1="-6002.5405" x2="6973.8564" y2="-5959.8867" gradientTransform="matrix(-0.2155 0.9765 -0.9765 -0.2155 -1272.6982 -6578.4756)">
					<stop  offset="0" style="stop-color:#09005D"/>
					<stop  offset="1" style="stop-color:#1A0F91"/>
				</linearGradient>
				<path style="fill:url(#SVGID_00000006692003706783062480000005886432280815254431_);" d="M3052.948,1575.482
					c-11.501-2.537-18.767-13.918-16.23-25.419l15.096-68.422c2.538-11.501,13.918-18.767,25.419-16.23l0,0
					c11.501,2.537,18.767,13.918,16.23,25.419l-15.096,68.422C3075.829,1570.753,3064.449,1578.02,3052.948,1575.482
					L3052.948,1575.482z"/>
			</g>
			
				<linearGradient id="SVGID_00000034802964624400710340000002620490827751442341_" gradientUnits="userSpaceOnUse" x1="-918.7483" y1="2126.5085" x2="-683.0366" y2="2200.0505" gradientTransform="matrix(-1 0 0 1 2176.9375 0)">
				<stop  offset="0" style="stop-color:#FEBBBA"/>
				<stop  offset="1" style="stop-color:#FF928E"/>
			</linearGradient>
			<path style="fill:url(#SVGID_00000034802964624400710340000002620490827751442341_);" d="M3013.026,2093.648
				c12.95,18.293,45.578,33.82,68.62,40.88c-26.875,31.967-65.585,55.047-113.231,85.978l-42.178,17.52l0.649-54.831
				C2926.886,2183.195,2983.018,2173.423,3013.026,2093.648z"/>
			
				<linearGradient id="SVGID_00000103244242984253202260000000239013019449319575_" gradientUnits="userSpaceOnUse" x1="-2297.468" y1="1199.2665" x2="-1847.6638" y2="1339.6052" gradientTransform="matrix(-0.9295 -0.3688 -0.3688 0.9295 1512.0292 275.8175)">
				<stop  offset="0" style="stop-color:#FEBBBA"/>
				<stop  offset="1" style="stop-color:#FF928E"/>
			</linearGradient>
			<path style="fill:url(#SVGID_00000103244242984253202260000000239013019449319575_);" d="M2872.806,2181.846
				c2.538,23.701,3.558,42.054,7.893,58.056c2.046,7.551,9.033,12.784,16.855,12.695c38.935-0.44,45.985-34.393,45.379-58.557
				c-0.209-8.335-7.071-14.971-15.407-15.153l-51.022-1.116C2874.303,2177.722,2872.572,2179.655,2872.806,2181.846z"/>
		</g>
	</g>
</g>
</svg>
